# xmcd
#
# Track frame offsets:
#	150
#	176040
#	206260
#
# Disc length: 3246 seconds
#
# Revision: 1
# Processed by: cddbd v1.4PL0 Copyright (c) Steve Scherf et al.
# Submitted via: audiograbber 1.82.01
#
DISCID=200cac03
DTITLE=Hany Shaker - Min Ghayr Leh
DYEAR=1900
DGENRE=
TTITLE0=Min Gher Leh
TTITLE1=Ba3shak Dehketak
TTITLE2=Odam El Jami3
EXTD=
EXTT0=
EXTT1=
EXTT2=
PLAYORDER=
